<svg width="19.975708" height="143.557739" viewBox="0 0 19.9757 143.558" fill="none" xmlns="http://www.w3.org/2000/svg" xmlns:xlink="http://www.w3.org/1999/xlink">
	<desc>
			Created with Pixso.
	</desc>
	<defs/>
	<path id="instagram" d="M0.580566 69.809C0 70.8853 0 72.2943 0 75.1123L0 75.7832C0 78.6012 0 80.0102 0.580566 81.0865C1.09131 82.0333 1.90625 82.803 2.90845 83.2854C4.04797 83.8339 5.53967 83.8339 8.52295 83.8339L9.23315 83.8339C12.2166 83.8339 13.7081 83.8339 14.8477 83.2854C15.85 82.803 16.6648 82.0333 17.1755 81.0865C17.7561 80.0102 17.7561 78.6012 17.7561 75.7832L17.7561 75.1123C17.7561 72.2943 17.7561 70.8853 17.1755 69.809C16.6648 68.8623 15.85 68.0925 14.8477 67.6101C13.7081 67.0617 12.2166 67.0617 9.23315 67.0617L8.52295 67.0617C5.53967 67.0617 4.04797 67.0617 2.90845 67.6101C1.90625 68.0925 1.09131 68.8623 0.580566 69.809ZM9.23315 68.7389L8.52295 68.7389C7.00195 68.7389 5.96802 68.7402 5.16882 68.8019C4.39038 68.862 3.99231 68.9709 3.7146 69.1045C3.04639 69.4261 2.50317 69.9393 2.16272 70.5705C2.02112 70.8328 1.90588 71.2088 1.84229 71.9442C1.77698 72.699 1.77563 73.6757 1.77563 75.1123L1.77563 75.7832C1.77563 77.2199 1.77698 78.1965 1.84229 78.9514C1.90588 79.6867 2.02112 80.0628 2.16272 80.3251C2.50317 80.9563 3.04639 81.4694 3.7146 81.791C3.99231 81.9247 4.39038 82.0336 5.16882 82.0937C5.96802 82.1553 7.00195 82.1566 8.52295 82.1566L9.23315 82.1566C10.7542 82.1566 11.7881 82.1553 12.5873 82.0937C13.3657 82.0336 13.7638 81.9247 14.0415 81.791C14.7097 81.4694 15.2531 80.9563 15.5935 80.3251C15.735 80.0628 15.8502 79.6867 15.9138 78.9514C15.9791 78.1965 15.9806 77.2199 15.9806 75.7832L15.9806 75.1123C15.9806 73.6757 15.9791 72.699 15.9138 71.9442C15.8502 71.2088 15.735 70.8328 15.5935 70.5705C15.2531 69.9393 14.7097 69.4261 14.0415 69.1045C13.7638 68.9709 13.3657 68.862 12.5873 68.8019C11.7881 68.7402 10.7542 68.7389 9.23315 68.7389ZM15.0928 70.8354C15.0928 71.5302 14.4965 72.0934 13.761 72.0934C13.0255 72.0934 12.4293 71.5302 12.4293 70.8354C12.4293 70.1407 13.0255 69.5775 13.761 69.5775C14.4965 69.5775 15.0928 70.1407 15.0928 70.8354ZM8.87805 79.6408C11.3297 79.6408 13.3171 77.7635 13.3171 75.4478C13.3171 73.132 11.3297 71.2547 8.87805 71.2547C6.42651 71.2547 4.43909 73.132 4.43909 75.4478C4.43909 77.7635 6.42651 79.6408 8.87805 79.6408ZM8.87805 77.9636C10.349 77.9636 11.5415 76.8372 11.5415 75.4478C11.5415 74.0583 10.349 72.9319 8.87805 72.9319C7.4071 72.9319 6.2146 74.0583 6.2146 75.4478C6.2146 76.8372 7.4071 77.9636 8.87805 77.9636Z" fill="#000000" fill-opacity="1.000000" fill-rule="evenodd"/>
	<path id="twitter" d="M6.27002 143.558C3.96216 143.558 1.81079 142.914 0 141.805C1.53735 141.9 4.25061 141.672 5.93823 140.129C3.39954 140.017 2.25464 138.152 2.10522 137.354C2.32092 137.434 3.34973 137.53 3.93042 137.306C1.01013 136.605 0.562134 134.149 0.661621 133.399C1.20923 133.766 2.13843 133.894 2.50342 133.862C-0.217773 131.996 0.76123 129.189 1.24243 128.583C3.19531 131.176 6.12195 132.632 9.74268 132.713C9.67444 132.426 9.63843 132.127 9.63843 131.821C9.63843 129.619 11.4956 127.834 13.7866 127.834C14.9835 127.834 16.0621 128.321 16.8193 129.101C17.6191 128.921 18.823 128.5 19.4115 128.137C19.1149 129.157 18.1914 130.009 17.6327 130.324C18.1234 130.253 19.4512 130.009 19.9757 129.668C19.7163 130.241 18.7372 131.194 17.9337 131.728C18.0831 138.046 13.0387 143.558 6.27002 143.558Z" fill="#0B0B0B" fill-opacity="1.000000" fill-rule="nonzero"/>
	<path id="f" d="M14.3129 10.8936L14.8879 7.3887L11.2902 7.3887L11.2902 5.11525C11.2902 4.15616 11.7917 3.22072 13.4032 3.22072L15.0399 3.22072L15.0399 0.236816C15.0399 0.236816 13.5552 0 12.1364 0C9.172 0 7.23621 1.67902 7.23621 4.71741L7.23621 7.3887L3.94238 7.3887L3.94238 10.8936L7.23621 10.8936L7.23621 23.0617L11.2902 23.0617L11.2902 10.8936L14.3129 10.8936Z" fill="#0B0B0B" fill-opacity="1.000000" fill-rule="nonzero"/>
</svg>
