<svg width="34.000000" height="34.000000" viewBox="0 0 34 34" fill="none" xmlns="http://www.w3.org/2000/svg" xmlns:xlink="http://www.w3.org/1999/xlink">
	<desc>
			Created with Pixso.
	</desc>
	<defs/>
	<path id="Vector" d="M11.826 19.4785C11.7683 19.4331 11.7213 19.377 11.6879 19.3136C11.6545 19.2502 11.6355 19.181 11.6321 19.1104C11.6287 19.0397 11.641 18.9691 11.6682 18.9032C11.6954 18.8372 11.7369 18.7773 11.79 18.7273C11.8431 18.6773 11.9067 18.6382 11.9768 18.6126C12.0468 18.5871 12.1218 18.5755 12.1969 18.5787C12.2719 18.5819 12.3454 18.5998 12.4128 18.6312C12.4801 18.6626 12.5397 18.7069 12.5878 18.7613L16.4789 22.4203L16.4789 10.3257C16.4862 10.1951 16.5465 10.0722 16.6473 9.98221C16.748 9.89224 16.8816 9.8421 17.0205 9.8421C17.1593 9.8421 17.2929 9.89224 17.3937 9.98221C17.4944 10.0722 17.5547 10.1951 17.5621 10.3257L17.5621 22.4203L21.4486 18.7555C21.5512 18.6633 21.6876 18.6118 21.8294 18.6118C21.9713 18.6118 22.1077 18.6633 22.2103 18.7555C22.2604 18.8026 22.3002 18.8584 22.3273 18.92C22.3545 18.9815 22.3684 19.0475 22.3684 19.1141C22.3684 19.1807 22.3545 19.2467 22.3273 19.3083C22.3002 19.3698 22.2604 19.4257 22.2103 19.4727L17.396 24.0053C17.3467 24.0536 17.2875 24.0919 17.2221 24.1182C17.1566 24.1444 17.0863 24.1579 17.0151 24.1579C16.944 24.1579 16.8736 24.1444 16.8082 24.1182C16.7427 24.0919 16.6836 24.0536 16.6343 24.0053L11.826 19.4785Z" fill="#000000" fill-opacity="1.000000" fill-rule="nonzero"/>
	<circle id="Ellipse 8" cx="17.000000" cy="17.000000" r="17.000000" fill="#C4C4C4" fill-opacity="0"/>
	<circle id="Ellipse 8" cx="17.000000" cy="17.000000" r="16.500000" stroke="#000000" stroke-opacity="1.000000" stroke-width="1.000000"/>
</svg>
